<svg id="Layer_1" viewBox="0 0 24 24" xmlns="http://www.w3.org/2000/svg">

    <title>ExploreB</title>
    <path
        d="M10.42,10.42,7.3,16.67l6.25-3.12L16.67,7.3Zm2.29,2.26a1,1,0,1,1,0-1.42A1,1,0,0,1,12.71,12.68Z" />
    <path
        d="M12,2A10,10,0,1,0,22,12,10,10,0,0,0,12,2ZM4.82,16.25a9.54,9.54,0,0,1-.55-1.11,8.39,8.39,0,0,1,0-6.28A8.51,8.51,0,0,1,8.86,4.27a8.39,8.39,0,0,1,6.28,0,9.54,9.54,0,0,1,1.11.55l-1.33.67a7.14,7.14,0,0,0-9.43,9.43Zm.71,2.19a.62.62,0,0,1-.11-.7l4-8a.51.51,0,0,1,.27-.27l8-4a.62.62,0,0,1,.7.11.61.61,0,0,1,.11.7l-4,8a.7.7,0,0,1-.27.27l-8,4A.61.61,0,0,1,5.53,18.44Zm12.36-.55a8.21,8.21,0,0,1-2.75,1.84,8.39,8.39,0,0,1-6.28,0,9.52,9.52,0,0,1-1.15-.58L9,18.49A7.14,7.14,0,0,0,18.49,9l.66-1.33a9.52,9.52,0,0,1,.58,1.15,8.39,8.39,0,0,1,0,6.28A8.21,8.21,0,0,1,17.89,17.89Z" />
</svg>