<svg height="18" viewBox="0 0 127.916 18" width="127.916" xmlns="http://www.w3.org/2000/svg">
    <g id="Group_58" transform="translate(-220.284 -570.857)">
        <g id="Group_55" transform="translate(246.46 570.857)">
            <path
                d="M310.458,570.857h-7.325a.473.473,0,0,0-.477.469v16.9a.473.473,0,0,0,.477.469h7.325a8.92,8.92,0,1,0,0-17.838Zm0,16.9h-6.849V571.794h6.849a7.983,7.983,0,1,1,0,15.963Z"
                fill="#8248d9" id="Path_29" transform="translate(-302.656 -570.857)" />
            <path
                d="M363.95,584.443v-3.2H363v14.647h.953v-7.852a6.326,6.326,0,0,1,6.319-6.319v-.953A7.275,7.275,0,0,0,363.95,584.443Z"
                fill="#8248d9" id="Path_30" transform="translate(-344.257 -577.924)" />
            <path
                d="M607.784,584.443v-3.2h-.953v14.647h.953v-7.852a6.326,6.326,0,0,1,6.319-6.319v-.953A7.275,7.275,0,0,0,607.784,584.443Z"
                fill="#8248d9" id="Path_31" transform="translate(-512.363 -577.924)" />
            <path
                d="M444.543,580.607h-.228a5.329,5.329,0,0,0-5.323,5.323h.953a4.374,4.374,0,0,1,4.369-4.369h.228a4.374,4.374,0,0,1,4.369,4.369v.915h-3.7c-.169-.007-4.178-.125-6,2.409a4.149,4.149,0,0,0-.27,4.454,4.432,4.432,0,0,0,4.212,2.109,7.409,7.409,0,0,0,5.765-2.707v2.671h.953V585.93A5.329,5.329,0,0,0,444.543,580.607Zm-1.4,14.257a3.558,3.558,0,0,1-3.382-1.625,3.235,3.235,0,0,1,.214-3.427c1.526-2.117,5.158-2.013,5.213-2.013h3.72v3.66A6.738,6.738,0,0,1,443.147,594.864Z"
                fill="#8248d9" id="Path_32" transform="translate(-396.294 -577.817)" />
            <path
                d="M499.364,580.635a5.108,5.108,0,0,0-4.575,2.651,5.107,5.107,0,0,0-4.575-2.651,4.839,4.839,0,0,0-5.051,4.581V595.8h.953V585.216a4.128,4.128,0,0,1,8.2,0V595.8h.953V585.216a4.128,4.128,0,0,1,8.2,0V595.8h.953V585.216A4.839,4.839,0,0,0,499.364,580.635Z"
                fill="#8248d9" id="Path_33" transform="translate(-428.667 -577.836)" />
            <path
                d="M402,586.934l.016,0a7.542,7.542,0,0,0-3.665-5.5c-.029-.016-.057-.034-.086-.05-.126-.068-.256-.128-.386-.188-.064-.03-.127-.062-.192-.089-.094-.039-.191-.072-.287-.107s-.2-.077-.308-.109c-.059-.018-.12-.031-.18-.047-.141-.039-.282-.078-.426-.107-.027-.005-.055-.008-.082-.013-.175-.033-.351-.061-.53-.079-.037,0-.075,0-.112-.006-.162-.013-.325-.025-.49-.025h-.025c-3.786,0-6.866,3.412-6.866,7.605s3.08,7.6,6.866,7.6h.025A6.418,6.418,0,0,0,399.9,593.8c.059-.06.115-.124.172-.187.038-.042.077-.083.114-.126.074-.085.145-.173.215-.262l.05-.064q.116-.151.227-.309l.007-.009h0a7.824,7.824,0,0,0,.666-1.157h-1.067a6.759,6.759,0,0,1-.383.616h0c-.066.1-.135.189-.206.281l-.019.025c-.059.076-.121.15-.183.222l-.083.1c-.046.052-.093.1-.14.152s-.108.112-.164.166l-.078.076a5.52,5.52,0,0,1-3.772,1.541c-3.237-.006-5.869-2.987-5.869-6.651,0-.139,0-.278.011-.415h12.174a.477.477,0,0,0,.474-.529C402.035,587.154,402.013,587.045,402,586.934Zm-12.482-.091a6.3,6.3,0,0,1,4.7-5.176l.07-.012c.143-.027.287-.05.432-.065.114-.011.231-.016.347-.02.063,0,.125-.009.189-.01a5.355,5.355,0,0,1,2.037.408c.064.026.124.058.187.087.088.04.177.079.263.124q.212.112.414.241l.014.008a6.652,6.652,0,0,1,2.852,4.414Z"
                fill="#8248d9" id="Path_34" transform="translate(-361.798 -577.817)" />
            <path
                d="M568.342,586.934l.016,0a7.543,7.543,0,0,0-3.665-5.5c-.029-.016-.057-.034-.086-.05-.126-.068-.256-.128-.386-.188-.064-.03-.127-.062-.192-.089-.094-.039-.191-.072-.288-.107s-.2-.077-.308-.109c-.059-.018-.12-.031-.18-.047-.141-.039-.282-.078-.426-.107-.027-.005-.055-.008-.082-.013-.175-.033-.351-.061-.53-.079-.037,0-.075,0-.112-.006-.162-.013-.325-.025-.49-.025h-.024c-3.786,0-6.866,3.412-6.866,7.605s3.08,7.6,6.866,7.6h.024a6.417,6.417,0,0,0,4.633-2.013c.059-.06.115-.124.172-.187.038-.042.077-.083.114-.126.074-.085.145-.173.215-.262l.05-.064q.117-.151.227-.309l.007-.009h0a7.83,7.83,0,0,0,.666-1.157H566.63a6.77,6.77,0,0,1-.382.616h0c-.066.1-.135.189-.206.281l-.019.025c-.059.076-.121.15-.183.222l-.083.1c-.046.052-.093.1-.14.152s-.108.112-.163.166l-.078.076a5.52,5.52,0,0,1-3.772,1.541c-3.237-.006-5.869-2.987-5.869-6.651q0-.209.011-.415H567.92a.477.477,0,0,0,.474-.529C568.381,587.154,568.359,587.045,568.342,586.934Zm-12.482-.091a6.3,6.3,0,0,1,4.7-5.176l.07-.012c.142-.027.286-.05.432-.065.115-.011.231-.016.347-.02.063,0,.125-.009.189-.01a5.356,5.356,0,0,1,2.037.408c.063.026.124.058.187.087.088.04.177.079.264.124q.211.112.414.241l.014.008a6.653,6.653,0,0,1,2.852,4.414Z"
                fill="#8248d9" id="Path_35" transform="translate(-476.813 -577.817)" />
        </g>
        <g id="Group_56" transform="translate(220.284 570.926)">
            <path
                d="M260.173,587.684a.241.241,0,0,0,.085-.191.231.231,0,0,0-.037-.118.3.3,0,0,1-.048.309Z"
                fill="#8248d9" id="Path_36" transform="translate(-247.497 -582.285)" />
            <path
                d="M253.507,578.852a.238.238,0,0,0,.019-.1.23.23,0,0,0-.04-.123.3.3,0,0,1,.034.139A.3.3,0,0,1,253.507,578.852Z"
                fill="#8248d9" id="Path_37" transform="translate(-242.935 -576.227)" />
            <path
                d="M235.55,584.638a.306.306,0,0,1,.409-.128,11.323,11.323,0,0,0,5.173,1.231h.735l-.519-5.638h1.714l-.752-6.181a3.269,3.269,0,0,0-3.266-2.849H220.284a3.979,3.979,0,0,0,2.5,2.2h7.777a.3.3,0,0,1,.27.162.223.223,0,0,1,.04.121.23.23,0,0,1-.019.1.3.3,0,0,1-.291.213H223.75a3.983,3.983,0,0,0,2.529,2.112h6.448a.3.3,0,0,1,.281.186.223.223,0,0,1,.037.116.235.235,0,0,1-.085.188.3.3,0,0,1-.233.107h-5.19a3.985,3.985,0,0,0,2.6,2.112h4.116a.3.3,0,1,1,0,.6h-3.888v9.489h8.266v-2.7a11.973,11.973,0,0,1-2.949-1.036A.3.3,0,0,1,235.55,584.638Zm1.172-10.068a.307.307,0,0,1,.426-.051,2.016,2.016,0,0,0,1.847.416,2.227,2.227,0,0,0,.784-.4.307.307,0,0,1,.429.021.3.3,0,0,1-.021.422,2.811,2.811,0,0,1-1.024.534,2.572,2.572,0,0,1-.7.1,2.731,2.731,0,0,1-1.692-.618A.3.3,0,0,1,236.722,574.57Z"
                fill="#8248d9" id="Path_38" transform="translate(-220.284 -571.073)" />
        </g>
    </g>
</svg>
