<svg id="Layer_1" viewBox="0 0 24 24" xmlns="http://www.w3.org/2000/svg">

    <title>Journal</title>
    <path
        d="M18.91,2H5V3.8H5V6H4A1,1,0,0,0,3,7H3A1,1,0,0,0,4,8H5v3H4a1,1,0,0,0-1,1H3a1,1,0,0,0,1,1H5v3H4a1,1,0,0,0-1,1H3a1,1,0,0,0,1,1H5v2.46H5V22H18.91A2.05,2.05,0,0,0,21,20V4.05A2.05,2.05,0,0,0,18.91,2ZM19,20a0,0,0,0,1-.05.05H7V18H8a1,1,0,0,0,1-1H9a1,1,0,0,0-1-1H7V13H8a1,1,0,0,0,1-1H9a1,1,0,0,0-1-1H7V8H8A1,1,0,0,0,9,7H9A1,1,0,0,0,8,6H7V4h12a0,0,0,0,1,.05,0Z" />
    <path d="M15,16.06l.81,1.81a.19.19,0,0,0,.35,0l.81-1.81v-8H15Z" />
    <path d="M16.29,6h-.68a.66.66,0,0,0-.65.65v.56h2V6.62A.65.65,0,0,0,16.29,6Z" />
</svg>