<svg id="Layer_1" viewBox="0 0 24 24" xmlns="http://www.w3.org/2000/svg">

    <title>JournalB</title>
    <path class="cls-1" d="M15,16.06l.81,1.81a.19.19,0,0,0,.35,0l.81-1.81v-8H15Z" />
    <path class="cls-1" d="M16.29,6h-.68a.66.66,0,0,0-.65.65v.56h2V6.62A.65.65,0,0,0,16.29,6Z" />
    <path
        d="M18.91,2H5V3.8H5V4H8a1.9,1.9,0,0,1,0,3.8H5V10.1H8a1.9,1.9,0,0,1,0,3.8H5v2.78H8a1.9,1.9,0,1,1,0,3.8H5V22H18.91A2.05,2.05,0,0,0,21,20V4.05A2.05,2.05,0,0,0,18.91,2Zm-2,14.06-.81,1.81a.19.19,0,0,1-.35,0L15,16.06v-8h2Zm0-8.88H15V6.62A.66.66,0,0,1,15.61,6h.68a.65.65,0,0,1,.64.65Z" />
    <path d="M8,6.94a1,1,0,1,0,0-2H4a1,1,0,0,0,0,2Z" />
    <path d="M8,13a1,1,0,1,0,0-2H4a1,1,0,1,0,0,2Z" />
    <path d="M8,19.58a1,1,0,1,0,0-2H4a1,1,0,1,0,0,2Z" />
</svg>