<svg id="Layer_1" viewBox="0 0 24 24" xmlns="http://www.w3.org/2000/svg">

    <title>Notification</title>
    <path
        d="M12,7l.72.1a4.89,4.89,0,0,1,1.19.33,4.82,4.82,0,0,1,1.54,1,5,5,0,0,1,1,1.54,4.87,4.87,0,0,1,.38,1.89V16.7H7.15V11.89A4.87,4.87,0,0,1,7.53,10a5,5,0,0,1,1-1.54,4.82,4.82,0,0,1,1.54-1,4.92,4.92,0,0,1,1.16-.33L12,7m0-5a1,1,0,0,0-1,1V5.12a6.33,6.33,0,0,0-1.65.46A6.78,6.78,0,0,0,7.16,7.05,6.67,6.67,0,0,0,5.69,9.22a6.78,6.78,0,0,0-.54,2.67v4.84L4,18.7H20l-1.15-1.95V11.89a6.78,6.78,0,0,0-.54-2.67,6.67,6.67,0,0,0-1.47-2.17A6.78,6.78,0,0,0,13,5.11V3a1,1,0,0,0-1-1Z" />
    <path d="M14.69,19.9H9.36a2.74,2.74,0,0,0,5.33,0Z" />
</svg>